<svg width="1080" height="1920" viewBox="0 0 1080 1920" fill="none" xmlns="http://www.w3.org/2000/svg">
<g clip-path="url(#clip0_8480_1254)">
<rect width="1080" height="1920" fill="#212936"/>
<path d="M257.421 222.583C126.032 153.308 -39.9968 168.858 -153.469 282.28C-526.137 592.698 -355.33 922.219 -121.218 985.497C112.893 1048.77 473.616 1023.7 548.866 776.562C624.116 529.421 327.58 259.574 257.421 222.583Z" stroke="#373E4A" stroke-width="4"/>
<path d="M1076.42 815.583C945.032 746.308 779.003 761.858 665.531 875.28C292.863 1185.7 463.67 1515.22 697.782 1578.5C931.893 1641.77 1292.62 1616.7 1367.87 1369.56C1443.12 1122.42 1146.58 852.574 1076.42 815.583Z" stroke="#373E4A" stroke-width="4"/>
<path d="M1147.42 -203.417C1016.03 -272.692 850.003 -257.142 736.531 -143.72C363.863 166.698 534.67 496.219 768.782 559.497C1002.89 622.774 1363.62 597.702 1438.87 350.562C1514.12 103.421 1217.58 -166.426 1147.42 -203.417Z" stroke="#373E4A" stroke-width="4"/>
</g>
<defs>
<clipPath id="clip0_8480_1254">
<rect width="1080" height="1920" fill="white"/>
</clipPath>
</defs>
</svg>
